# xmcd
#
# Track frame offsets:
#	150
#	15225
#	36300
#	58425
#	74250
#	91425
#	109575
#	129750
#	151425
#	168525
#	186900
#	204150
#	222600
#	239325
#	257550
#	280050
#
# Disc length: 3909 seconds
#
# Revision: 3
# Processed by: cddbd v1.5.2PL0 Copyright (c) Steve Scherf et al.
# Submitted via: audiograbber 1.83.01
#
DISCID=e30f4310
DTITLE=Various Artist - Lovin' Feelings [CD 3)
DYEAR=1991
DGENRE=Pop
TTITLE0=Kansas - Dust In The Wind
TTITLE1=Boston - More Than A Feeling
TTITLE2=Wham! - Careless Whisper
TTITLE3=Terence Trent D'Arby - Wishing Well
TTITLE4=Bonny Bianco and Pierre Cosso - Stay
TTITLE5=Bros - Cat Among The Pigeons
TTITLE6=Europe - Carrie
TTITLE7=Dan Fogelberg - Windows And Walls
TTITLE8=Toto - I'll Be Over You
TTITLE9=Will To Power - Baby, I Love Your Way - Freebird (Free Baby)
TTITLE10=O. C. Smith - Little Green Apples
TTITLE11=Dave Loggins - Please Come To Boston
TTITLE12=P. M. Sampson and Double Key - We Love To Love
TTITLE13=Mike Batt - Lady Of The Dawn
TTITLE14=Donovan - Atlantis
TTITLE15=Scott McKenzie - San Francisco ( Be Sure To Wear Some Flowers In Your 
TTITLE15=Hair)
EXTD=YEAR: 1991
EXTT0=
EXTT1=
EXTT2=
EXTT3=
EXTT4=
EXTT5=
EXTT6=
EXTT7=
EXTT8=
EXTT9=
EXTT10=
EXTT11=
EXTT12=
EXTT13=
EXTT14=
EXTT15=
PLAYORDER=
